<mxfile host="Electron" modified="2023-10-06T01:12:36.150Z" agent="Mozilla/5.0 (Windows NT 10.0; Win64; x64) AppleWebKit/537.36 (KHTML, like Gecko) draw.io/21.2.8 Chrome/112.0.5615.165 Electron/24.2.0 Safari/537.36" etag="flmb5oyEOeeU9MbT2pL2" version="21.2.8" type="device">
  <diagram id="C5RBs43oDa-KdzZeNtuy" name="Page-1">
    <mxGraphModel dx="1723" dy="865" grid="1" gridSize="10" guides="1" tooltips="1" connect="1" arrows="1" fold="1" page="1" pageScale="1" pageWidth="827" pageHeight="1169" math="0" shadow="0">
      <root>
        <mxCell id="WIyWlLk6GJQsqaUBKTNV-0" />
        <mxCell id="WIyWlLk6GJQsqaUBKTNV-1" parent="WIyWlLk6GJQsqaUBKTNV-0" />
        <mxCell id="eCWBEy-Ntbxf5NnkdCfJ-3" style="edgeStyle=orthogonalEdgeStyle;rounded=0;orthogonalLoop=1;jettySize=auto;html=1;exitX=0.5;exitY=1;exitDx=0;exitDy=0;entryX=0.5;entryY=0;entryDx=0;entryDy=0;" edge="1" parent="WIyWlLk6GJQsqaUBKTNV-1" source="WIyWlLk6GJQsqaUBKTNV-3" target="eCWBEy-Ntbxf5NnkdCfJ-2">
          <mxGeometry relative="1" as="geometry" />
        </mxCell>
        <mxCell id="WIyWlLk6GJQsqaUBKTNV-3" value="英語の txt. ファイルを読み込む" style="rounded=1;whiteSpace=wrap;html=1;fontSize=12;glass=0;strokeWidth=1;shadow=0;" parent="WIyWlLk6GJQsqaUBKTNV-1" vertex="1">
          <mxGeometry x="40" y="80" width="180" height="40" as="geometry" />
        </mxCell>
        <mxCell id="eCWBEy-Ntbxf5NnkdCfJ-0" value="&lt;b&gt;&lt;font style=&quot;font-size: 24px;&quot;&gt;登録&lt;/font&gt;&lt;/b&gt;" style="text;html=1;strokeColor=none;fillColor=none;align=center;verticalAlign=middle;whiteSpace=wrap;rounded=0;" vertex="1" parent="WIyWlLk6GJQsqaUBKTNV-1">
          <mxGeometry x="20" y="30" width="60" height="30" as="geometry" />
        </mxCell>
        <mxCell id="eCWBEy-Ntbxf5NnkdCfJ-1" value="&lt;span style=&quot;font-size: 24px;&quot;&gt;&lt;b&gt;閲覧&lt;/b&gt;&lt;/span&gt;" style="text;html=1;strokeColor=none;fillColor=none;align=center;verticalAlign=middle;whiteSpace=wrap;rounded=0;" vertex="1" parent="WIyWlLk6GJQsqaUBKTNV-1">
          <mxGeometry x="400" y="30" width="60" height="30" as="geometry" />
        </mxCell>
        <mxCell id="eCWBEy-Ntbxf5NnkdCfJ-27" style="edgeStyle=orthogonalEdgeStyle;rounded=0;orthogonalLoop=1;jettySize=auto;html=1;exitX=0.5;exitY=1;exitDx=0;exitDy=0;entryX=0.5;entryY=0;entryDx=0;entryDy=0;" edge="1" parent="WIyWlLk6GJQsqaUBKTNV-1" source="eCWBEy-Ntbxf5NnkdCfJ-2" target="eCWBEy-Ntbxf5NnkdCfJ-26">
          <mxGeometry relative="1" as="geometry" />
        </mxCell>
        <mxCell id="eCWBEy-Ntbxf5NnkdCfJ-2" value="ファイル内の文章を&lt;br&gt;単語で区切る" style="rounded=1;whiteSpace=wrap;html=1;fontSize=12;glass=0;strokeWidth=1;shadow=0;" vertex="1" parent="WIyWlLk6GJQsqaUBKTNV-1">
          <mxGeometry x="40" y="160" width="180" height="40" as="geometry" />
        </mxCell>
        <mxCell id="eCWBEy-Ntbxf5NnkdCfJ-10" style="edgeStyle=orthogonalEdgeStyle;rounded=0;orthogonalLoop=1;jettySize=auto;html=1;exitX=1;exitY=0.5;exitDx=0;exitDy=0;entryX=1;entryY=0.5;entryDx=0;entryDy=0;" edge="1" parent="WIyWlLk6GJQsqaUBKTNV-1" source="eCWBEy-Ntbxf5NnkdCfJ-5" target="eCWBEy-Ntbxf5NnkdCfJ-26">
          <mxGeometry relative="1" as="geometry">
            <mxPoint x="330" y="310" as="targetPoint" />
            <Array as="points">
              <mxPoint x="280" y="360" />
              <mxPoint x="280" y="260" />
            </Array>
          </mxGeometry>
        </mxCell>
        <mxCell id="eCWBEy-Ntbxf5NnkdCfJ-12" style="edgeStyle=orthogonalEdgeStyle;rounded=0;orthogonalLoop=1;jettySize=auto;html=1;exitX=0.5;exitY=1;exitDx=0;exitDy=0;entryX=0.5;entryY=0;entryDx=0;entryDy=0;" edge="1" parent="WIyWlLk6GJQsqaUBKTNV-1" source="eCWBEy-Ntbxf5NnkdCfJ-5" target="eCWBEy-Ntbxf5NnkdCfJ-13">
          <mxGeometry relative="1" as="geometry">
            <mxPoint x="130" y="440" as="targetPoint" />
          </mxGeometry>
        </mxCell>
        <mxCell id="eCWBEy-Ntbxf5NnkdCfJ-5" value="単語が代名詞や&lt;br&gt;冠詞、前置詞である" style="rhombus;whiteSpace=wrap;html=1;" vertex="1" parent="WIyWlLk6GJQsqaUBKTNV-1">
          <mxGeometry x="40" y="320" width="180" height="80" as="geometry" />
        </mxCell>
        <mxCell id="eCWBEy-Ntbxf5NnkdCfJ-15" style="edgeStyle=orthogonalEdgeStyle;rounded=0;orthogonalLoop=1;jettySize=auto;html=1;exitX=1;exitY=0.5;exitDx=0;exitDy=0;entryX=1;entryY=0.5;entryDx=0;entryDy=0;" edge="1" parent="WIyWlLk6GJQsqaUBKTNV-1" source="eCWBEy-Ntbxf5NnkdCfJ-13" target="eCWBEy-Ntbxf5NnkdCfJ-26">
          <mxGeometry relative="1" as="geometry">
            <mxPoint x="280" y="420" as="targetPoint" />
            <Array as="points">
              <mxPoint x="280" y="480" />
              <mxPoint x="280" y="260" />
            </Array>
          </mxGeometry>
        </mxCell>
        <mxCell id="eCWBEy-Ntbxf5NnkdCfJ-17" style="edgeStyle=orthogonalEdgeStyle;rounded=0;orthogonalLoop=1;jettySize=auto;html=1;exitX=0.5;exitY=1;exitDx=0;exitDy=0;entryX=0.5;entryY=0;entryDx=0;entryDy=0;" edge="1" parent="WIyWlLk6GJQsqaUBKTNV-1" source="eCWBEy-Ntbxf5NnkdCfJ-13" target="eCWBEy-Ntbxf5NnkdCfJ-16">
          <mxGeometry relative="1" as="geometry" />
        </mxCell>
        <mxCell id="eCWBEy-Ntbxf5NnkdCfJ-13" value="既に登録されている&lt;br&gt;単語である" style="rhombus;whiteSpace=wrap;html=1;" vertex="1" parent="WIyWlLk6GJQsqaUBKTNV-1">
          <mxGeometry x="40" y="440" width="180" height="80" as="geometry" />
        </mxCell>
        <mxCell id="eCWBEy-Ntbxf5NnkdCfJ-25" style="edgeStyle=orthogonalEdgeStyle;rounded=0;orthogonalLoop=1;jettySize=auto;html=1;exitX=0.5;exitY=1;exitDx=0;exitDy=0;entryX=0.5;entryY=0;entryDx=0;entryDy=0;" edge="1" parent="WIyWlLk6GJQsqaUBKTNV-1" source="eCWBEy-Ntbxf5NnkdCfJ-16" target="eCWBEy-Ntbxf5NnkdCfJ-23">
          <mxGeometry relative="1" as="geometry" />
        </mxCell>
        <mxCell id="eCWBEy-Ntbxf5NnkdCfJ-16" value="Google翻訳APIに接続し&lt;br&gt;和訳を取得する" style="rounded=1;whiteSpace=wrap;html=1;fontSize=12;glass=0;strokeWidth=1;shadow=0;" vertex="1" parent="WIyWlLk6GJQsqaUBKTNV-1">
          <mxGeometry x="40" y="560" width="180" height="40" as="geometry" />
        </mxCell>
        <mxCell id="eCWBEy-Ntbxf5NnkdCfJ-18" value="Yes" style="text;html=1;strokeColor=none;fillColor=none;align=center;verticalAlign=middle;whiteSpace=wrap;rounded=0;" vertex="1" parent="WIyWlLk6GJQsqaUBKTNV-1">
          <mxGeometry x="190" y="330" width="60" height="30" as="geometry" />
        </mxCell>
        <mxCell id="eCWBEy-Ntbxf5NnkdCfJ-20" value="Yes" style="text;html=1;strokeColor=none;fillColor=none;align=center;verticalAlign=middle;whiteSpace=wrap;rounded=0;" vertex="1" parent="WIyWlLk6GJQsqaUBKTNV-1">
          <mxGeometry x="190" y="450" width="60" height="30" as="geometry" />
        </mxCell>
        <mxCell id="eCWBEy-Ntbxf5NnkdCfJ-21" value="No" style="text;html=1;strokeColor=none;fillColor=none;align=center;verticalAlign=middle;whiteSpace=wrap;rounded=0;" vertex="1" parent="WIyWlLk6GJQsqaUBKTNV-1">
          <mxGeometry x="120" y="390" width="60" height="30" as="geometry" />
        </mxCell>
        <mxCell id="eCWBEy-Ntbxf5NnkdCfJ-22" value="No" style="text;html=1;strokeColor=none;fillColor=none;align=center;verticalAlign=middle;whiteSpace=wrap;rounded=0;" vertex="1" parent="WIyWlLk6GJQsqaUBKTNV-1">
          <mxGeometry x="120" y="510" width="60" height="30" as="geometry" />
        </mxCell>
        <mxCell id="eCWBEy-Ntbxf5NnkdCfJ-33" style="edgeStyle=orthogonalEdgeStyle;rounded=0;orthogonalLoop=1;jettySize=auto;html=1;exitX=0.5;exitY=1;exitDx=0;exitDy=0;entryX=0.5;entryY=0;entryDx=0;entryDy=0;" edge="1" parent="WIyWlLk6GJQsqaUBKTNV-1" source="eCWBEy-Ntbxf5NnkdCfJ-23" target="eCWBEy-Ntbxf5NnkdCfJ-29">
          <mxGeometry relative="1" as="geometry" />
        </mxCell>
        <mxCell id="eCWBEy-Ntbxf5NnkdCfJ-23" value="元の単語と和訳を&lt;br&gt;ペアでリストに追加する" style="rounded=1;whiteSpace=wrap;html=1;fontSize=12;glass=0;strokeWidth=1;shadow=0;" vertex="1" parent="WIyWlLk6GJQsqaUBKTNV-1">
          <mxGeometry x="40" y="640" width="180" height="40" as="geometry" />
        </mxCell>
        <mxCell id="eCWBEy-Ntbxf5NnkdCfJ-28" style="edgeStyle=orthogonalEdgeStyle;rounded=0;orthogonalLoop=1;jettySize=auto;html=1;exitX=0.5;exitY=1;exitDx=0;exitDy=0;entryX=0.5;entryY=0;entryDx=0;entryDy=0;" edge="1" parent="WIyWlLk6GJQsqaUBKTNV-1" source="eCWBEy-Ntbxf5NnkdCfJ-26" target="eCWBEy-Ntbxf5NnkdCfJ-5">
          <mxGeometry relative="1" as="geometry" />
        </mxCell>
        <mxCell id="eCWBEy-Ntbxf5NnkdCfJ-26" value="単語を１つずつ取り出す" style="rounded=1;whiteSpace=wrap;html=1;fontSize=12;glass=0;strokeWidth=1;shadow=0;" vertex="1" parent="WIyWlLk6GJQsqaUBKTNV-1">
          <mxGeometry x="40" y="240" width="180" height="40" as="geometry" />
        </mxCell>
        <mxCell id="eCWBEy-Ntbxf5NnkdCfJ-30" style="edgeStyle=orthogonalEdgeStyle;rounded=0;orthogonalLoop=1;jettySize=auto;html=1;exitX=1;exitY=0.5;exitDx=0;exitDy=0;entryX=1;entryY=0.5;entryDx=0;entryDy=0;" edge="1" parent="WIyWlLk6GJQsqaUBKTNV-1" source="eCWBEy-Ntbxf5NnkdCfJ-29" target="eCWBEy-Ntbxf5NnkdCfJ-26">
          <mxGeometry relative="1" as="geometry">
            <Array as="points">
              <mxPoint x="280" y="760" />
              <mxPoint x="280" y="260" />
            </Array>
          </mxGeometry>
        </mxCell>
        <mxCell id="eCWBEy-Ntbxf5NnkdCfJ-35" style="edgeStyle=orthogonalEdgeStyle;rounded=0;orthogonalLoop=1;jettySize=auto;html=1;exitX=0.5;exitY=1;exitDx=0;exitDy=0;entryX=0.5;entryY=0;entryDx=0;entryDy=0;" edge="1" parent="WIyWlLk6GJQsqaUBKTNV-1" source="eCWBEy-Ntbxf5NnkdCfJ-29" target="eCWBEy-Ntbxf5NnkdCfJ-34">
          <mxGeometry relative="1" as="geometry" />
        </mxCell>
        <mxCell id="eCWBEy-Ntbxf5NnkdCfJ-29" value="まだ単語が残っている" style="rhombus;whiteSpace=wrap;html=1;" vertex="1" parent="WIyWlLk6GJQsqaUBKTNV-1">
          <mxGeometry x="40" y="720" width="180" height="80" as="geometry" />
        </mxCell>
        <mxCell id="eCWBEy-Ntbxf5NnkdCfJ-31" value="Yes" style="text;html=1;strokeColor=none;fillColor=none;align=center;verticalAlign=middle;whiteSpace=wrap;rounded=0;" vertex="1" parent="WIyWlLk6GJQsqaUBKTNV-1">
          <mxGeometry x="190" y="730" width="60" height="30" as="geometry" />
        </mxCell>
        <mxCell id="eCWBEy-Ntbxf5NnkdCfJ-34" value="登録完了" style="rounded=1;whiteSpace=wrap;html=1;fontSize=12;glass=0;strokeWidth=1;shadow=0;" vertex="1" parent="WIyWlLk6GJQsqaUBKTNV-1">
          <mxGeometry x="40" y="840" width="180" height="40" as="geometry" />
        </mxCell>
        <mxCell id="eCWBEy-Ntbxf5NnkdCfJ-36" value="No" style="text;html=1;strokeColor=none;fillColor=none;align=center;verticalAlign=middle;whiteSpace=wrap;rounded=0;" vertex="1" parent="WIyWlLk6GJQsqaUBKTNV-1">
          <mxGeometry x="120" y="790" width="60" height="30" as="geometry" />
        </mxCell>
      </root>
    </mxGraphModel>
  </diagram>
</mxfile>
